<?xml version="1.0" standalone="no"?>
<!DOCTYPE svg PUBLIC "-//W3C//DTD SVG 20010904//EN"
 "http://www.w3.org/TR/2001/REC-SVG-20010904/DTD/svg10.dtd">
<svg version="1.0" xmlns="http://www.w3.org/2000/svg"
 width="41.000000pt" height="41.000000pt" viewBox="0 0 41.000000 41.000000"
 preserveAspectRatio="xMidYMid meet">

<g transform="translate(0.000000,41.000000) scale(0.100000,-0.100000)"
fill="#000000" stroke="none">
<path d="M168 388 c-9 -7 -18 -26 -20 -43 -2 -25 -8 -31 -33 -33 -61 -7 -85
-61 -44 -98 15 -14 40 -20 95 -22 l74 -4 0 -34 c0 -32 -2 -34 -35 -34 -28 0
-35 4 -35 19 0 11 -4 23 -10 26 -6 4 -10 -5 -10 -19 0 -23 -4 -26 -34 -26 -48
0 -55 -18 -9 -22 34 -3 38 -6 41 -33 4 -34 26 -55 56 -55 32 0 47 14 55 51 6
29 12 35 41 39 24 3 39 13 49 31 13 24 13 29 -2 53 -16 24 -22 26 -97 26 l-80
0 0 40 c0 39 1 40 35 40 28 0 35 -4 35 -19 0 -11 5 -23 10 -26 6 -4 10 5 10
19 0 23 4 26 34 26 48 0 55 18 9 22 -33 3 -38 6 -44 37 -10 49 -54 68 -91 39z
m70 -45 c3 -32 2 -33 -32 -33 -33 0 -36 3 -36 28 0 36 8 44 40 40 20 -2 26 -9
28 -35z m-88 -88 c0 -43 -20 -54 -55 -31 -42 27 -26 66 27 66 25 0 28 -3 28
-35z m181 -81 c19 -23 -1 -48 -40 -52 -30 -3 -31 -2 -31 32 0 33 2 36 29 36
16 0 34 -7 42 -16z m-93 -106 c-3 -29 -6 -33 -33 -33 -27 0 -30 4 -33 33 -3
31 -2 32 33 32 35 0 36 -1 33 -32z"/>
</g>
</svg>
